<mxfile host="app.diagrams.net" agent="Mozilla/5.0 (X11; Linux x86_64) AppleWebKit/537.36 (KHTML, like Gecko) Chrome/136.0.0.0 Safari/537.36" version="28.2.0">
  <diagram name="Page-1" id="rCphZim96DwkhDZ6TwYV">
    <mxGraphModel dx="1060" dy="643" grid="1" gridSize="10" guides="1" tooltips="1" connect="1" arrows="1" fold="1" page="1" pageScale="1" pageWidth="850" pageHeight="1100" math="0" shadow="0">
      <root>
        <mxCell id="0" />
        <mxCell id="1" parent="0" />
        <mxCell id="mCsBdlMC1jrYlV6BGc9D-8" value="Place" style="swimlane;fontStyle=0;childLayout=stackLayout;horizontal=1;startSize=30;horizontalStack=0;resizeParent=1;resizeParentMax=0;resizeLast=0;collapsible=1;marginBottom=0;whiteSpace=wrap;html=1;" vertex="1" parent="1">
          <mxGeometry x="120" y="220" width="140" height="140" as="geometry" />
        </mxCell>
        <mxCell id="mCsBdlMC1jrYlV6BGc9D-9" value="&lt;div&gt;created: datetime&lt;/div&gt;&lt;div&gt;updated: datetime&lt;/div&gt;&lt;div&gt;name: string&lt;/div&gt;&lt;div&gt;type: PlaceType&lt;/div&gt;&lt;div&gt;details: list[PlaceDetails]&lt;/div&gt;&lt;div&gt;visits: list[Visit]&lt;/div&gt;" style="text;strokeColor=none;fillColor=none;align=left;verticalAlign=middle;spacingLeft=4;spacingRight=4;overflow=hidden;points=[[0,0.5],[1,0.5]];portConstraint=eastwest;rotatable=0;whiteSpace=wrap;html=1;" vertex="1" parent="mCsBdlMC1jrYlV6BGc9D-8">
          <mxGeometry y="30" width="140" height="110" as="geometry" />
        </mxCell>
        <mxCell id="mCsBdlMC1jrYlV6BGc9D-12" value="PlaceType" style="swimlane;fontStyle=0;childLayout=stackLayout;horizontal=1;startSize=30;horizontalStack=0;resizeParent=1;resizeParentMax=0;resizeLast=0;collapsible=1;marginBottom=0;whiteSpace=wrap;html=1;" vertex="1" parent="1">
          <mxGeometry x="120" y="55" width="140" height="100" as="geometry" />
        </mxCell>
        <mxCell id="mCsBdlMC1jrYlV6BGc9D-13" value="create: datetime&lt;div&gt;updated: datetime&lt;/div&gt;&lt;div&gt;name: string&lt;/div&gt;" style="text;strokeColor=none;fillColor=none;align=left;verticalAlign=middle;spacingLeft=4;spacingRight=4;overflow=hidden;points=[[0,0.5],[1,0.5]];portConstraint=eastwest;rotatable=0;whiteSpace=wrap;html=1;" vertex="1" parent="mCsBdlMC1jrYlV6BGc9D-12">
          <mxGeometry y="30" width="140" height="70" as="geometry" />
        </mxCell>
        <mxCell id="mCsBdlMC1jrYlV6BGc9D-16" value="PlaceDetails" style="swimlane;fontStyle=0;childLayout=stackLayout;horizontal=1;startSize=30;horizontalStack=0;resizeParent=1;resizeParentMax=0;resizeLast=0;collapsible=1;marginBottom=0;whiteSpace=wrap;html=1;" vertex="1" parent="1">
          <mxGeometry x="120" y="415" width="160" height="180" as="geometry" />
        </mxCell>
        <mxCell id="mCsBdlMC1jrYlV6BGc9D-17" value="created: datetime&amp;nbsp;&lt;div&gt;updated: datetime&amp;nbsp;&lt;/div&gt;&lt;div&gt;has_wide_paths: bool&lt;/div&gt;&lt;div&gt;is_paved: bool&lt;/div&gt;&lt;div&gt;has_escape_spots: bool&amp;nbsp;&lt;/div&gt;&lt;div&gt;has_shade: bool&lt;/div&gt;&lt;div&gt;has_field: bool&lt;/div&gt;&lt;div&gt;has_hazards: list[Hazard]&lt;/div&gt;&lt;div&gt;has_amenities: list[Amenity]&lt;/div&gt;" style="text;strokeColor=none;fillColor=none;align=left;verticalAlign=middle;spacingLeft=4;spacingRight=4;overflow=hidden;points=[[0,0.5],[1,0.5]];portConstraint=eastwest;rotatable=0;whiteSpace=wrap;html=1;" vertex="1" parent="mCsBdlMC1jrYlV6BGc9D-16">
          <mxGeometry y="30" width="160" height="150" as="geometry" />
        </mxCell>
        <mxCell id="mCsBdlMC1jrYlV6BGc9D-20" value="Wildlife" style="swimlane;fontStyle=0;childLayout=stackLayout;horizontal=1;startSize=30;horizontalStack=0;resizeParent=1;resizeParentMax=0;resizeLast=0;collapsible=1;marginBottom=0;whiteSpace=wrap;html=1;" vertex="1" parent="1">
          <mxGeometry x="390" y="40" width="140" height="90" as="geometry" />
        </mxCell>
        <mxCell id="mCsBdlMC1jrYlV6BGc9D-21" value="created: datetime&lt;div&gt;updated: datetime&lt;/div&gt;&lt;div&gt;name: string&lt;/div&gt;" style="text;strokeColor=none;fillColor=none;align=left;verticalAlign=middle;spacingLeft=4;spacingRight=4;overflow=hidden;points=[[0,0.5],[1,0.5]];portConstraint=eastwest;rotatable=0;whiteSpace=wrap;html=1;" vertex="1" parent="mCsBdlMC1jrYlV6BGc9D-20">
          <mxGeometry y="30" width="140" height="60" as="geometry" />
        </mxCell>
        <mxCell id="mCsBdlMC1jrYlV6BGc9D-24" value="Hazard" style="swimlane;fontStyle=0;childLayout=stackLayout;horizontal=1;startSize=30;horizontalStack=0;resizeParent=1;resizeParentMax=0;resizeLast=0;collapsible=1;marginBottom=0;whiteSpace=wrap;html=1;" vertex="1" parent="1">
          <mxGeometry x="390" y="465" width="140" height="110" as="geometry" />
        </mxCell>
        <mxCell id="mCsBdlMC1jrYlV6BGc9D-25" value="created: datetime&lt;div&gt;updated: datetime&lt;/div&gt;&lt;div&gt;type: string&lt;/div&gt;&lt;div&gt;name: string&lt;/div&gt;" style="text;strokeColor=none;fillColor=none;align=left;verticalAlign=middle;spacingLeft=4;spacingRight=4;overflow=hidden;points=[[0,0.5],[1,0.5]];portConstraint=eastwest;rotatable=0;whiteSpace=wrap;html=1;" vertex="1" parent="mCsBdlMC1jrYlV6BGc9D-24">
          <mxGeometry y="30" width="140" height="80" as="geometry" />
        </mxCell>
        <mxCell id="mCsBdlMC1jrYlV6BGc9D-28" value="Amenity" style="swimlane;fontStyle=0;childLayout=stackLayout;horizontal=1;startSize=30;horizontalStack=0;resizeParent=1;resizeParentMax=0;resizeLast=0;collapsible=1;marginBottom=0;whiteSpace=wrap;html=1;" vertex="1" parent="1">
          <mxGeometry x="120" y="660" width="140" height="90" as="geometry" />
        </mxCell>
        <mxCell id="mCsBdlMC1jrYlV6BGc9D-29" value="created: datetime&lt;div&gt;updated: datetime&lt;/div&gt;&lt;div&gt;name: string&lt;/div&gt;" style="text;strokeColor=none;fillColor=none;align=left;verticalAlign=middle;spacingLeft=4;spacingRight=4;overflow=hidden;points=[[0,0.5],[1,0.5]];portConstraint=eastwest;rotatable=0;whiteSpace=wrap;html=1;" vertex="1" parent="mCsBdlMC1jrYlV6BGc9D-28">
          <mxGeometry y="30" width="140" height="60" as="geometry" />
        </mxCell>
        <mxCell id="mCsBdlMC1jrYlV6BGc9D-32" value="Holiday" style="swimlane;fontStyle=0;childLayout=stackLayout;horizontal=1;startSize=30;horizontalStack=0;resizeParent=1;resizeParentMax=0;resizeLast=0;collapsible=1;marginBottom=0;whiteSpace=wrap;html=1;" vertex="1" parent="1">
          <mxGeometry x="650" y="250" width="120" height="100" as="geometry" />
        </mxCell>
        <mxCell id="mCsBdlMC1jrYlV6BGc9D-33" value="created: datetime&lt;div&gt;updated: datetime&lt;/div&gt;&lt;div&gt;name: string&lt;/div&gt;" style="text;strokeColor=none;fillColor=none;align=left;verticalAlign=middle;spacingLeft=4;spacingRight=4;overflow=hidden;points=[[0,0.5],[1,0.5]];portConstraint=eastwest;rotatable=0;whiteSpace=wrap;html=1;" vertex="1" parent="mCsBdlMC1jrYlV6BGc9D-32">
          <mxGeometry y="30" width="120" height="70" as="geometry" />
        </mxCell>
        <mxCell id="mCsBdlMC1jrYlV6BGc9D-36" value="Visit" style="swimlane;fontStyle=0;childLayout=stackLayout;horizontal=1;startSize=30;horizontalStack=0;resizeParent=1;resizeParentMax=0;resizeLast=0;collapsible=1;marginBottom=0;whiteSpace=wrap;html=1;" vertex="1" parent="1">
          <mxGeometry x="360" y="185" width="190" height="210" as="geometry" />
        </mxCell>
        <mxCell id="mCsBdlMC1jrYlV6BGc9D-37" value="created: datetime&lt;div&gt;updated: datetime&lt;/div&gt;&lt;div&gt;start_time: datetime&lt;/div&gt;&lt;div&gt;end_time: datetime | None&lt;/div&gt;&lt;div&gt;on_holiday: Holiday | None&lt;/div&gt;&lt;div&gt;est_people_count: list[int]&lt;/div&gt;&lt;div&gt;est_dog_count: list[int]&lt;/div&gt;&lt;div&gt;saw_children: boolean&lt;/div&gt;&lt;div&gt;saw_off_leash_dogs: boolean&lt;/div&gt;&lt;div&gt;saw_wildlife: list[Wildlife]&lt;/div&gt;&lt;div&gt;had_hazards: list[Hazard]&lt;/div&gt;" style="text;strokeColor=none;fillColor=none;align=left;verticalAlign=middle;spacingLeft=4;spacingRight=4;overflow=hidden;points=[[0,0.5],[1,0.5]];portConstraint=eastwest;rotatable=0;whiteSpace=wrap;html=1;" vertex="1" parent="mCsBdlMC1jrYlV6BGc9D-36">
          <mxGeometry y="30" width="190" height="180" as="geometry" />
        </mxCell>
        <mxCell id="mCsBdlMC1jrYlV6BGc9D-42" value="" style="endArrow=none;html=1;rounded=0;exitX=0;exitY=0.5;exitDx=0;exitDy=0;entryX=1;entryY=0.5;entryDx=0;entryDy=0;" edge="1" parent="1" source="mCsBdlMC1jrYlV6BGc9D-25" target="mCsBdlMC1jrYlV6BGc9D-17">
          <mxGeometry width="50" height="50" relative="1" as="geometry">
            <mxPoint x="330" y="500" as="sourcePoint" />
            <mxPoint x="390" y="440" as="targetPoint" />
          </mxGeometry>
        </mxCell>
        <mxCell id="mCsBdlMC1jrYlV6BGc9D-45" value="" style="endArrow=none;html=1;rounded=0;exitX=0.5;exitY=0;exitDx=0;exitDy=0;entryX=0.5;entryY=0;entryDx=0;entryDy=0;" edge="1" parent="1" target="mCsBdlMC1jrYlV6BGc9D-8">
          <mxGeometry width="50" height="50" relative="1" as="geometry">
            <mxPoint x="190" y="154.9999999999999" as="sourcePoint" />
            <mxPoint x="188" y="210" as="targetPoint" />
          </mxGeometry>
        </mxCell>
        <mxCell id="mCsBdlMC1jrYlV6BGc9D-46" value="" style="endArrow=none;html=1;rounded=0;entryX=0.391;entryY=1.006;entryDx=0;entryDy=0;entryPerimeter=0;" edge="1" parent="1" source="mCsBdlMC1jrYlV6BGc9D-36" target="mCsBdlMC1jrYlV6BGc9D-21">
          <mxGeometry width="50" height="50" relative="1" as="geometry">
            <mxPoint x="445" y="160" as="sourcePoint" />
            <mxPoint x="390" y="340" as="targetPoint" />
          </mxGeometry>
        </mxCell>
        <mxCell id="mCsBdlMC1jrYlV6BGc9D-47" value="" style="endArrow=none;html=1;rounded=0;entryX=0;entryY=0.5;entryDx=0;entryDy=0;exitX=1;exitY=0.5;exitDx=0;exitDy=0;" edge="1" parent="1" source="mCsBdlMC1jrYlV6BGc9D-37" target="mCsBdlMC1jrYlV6BGc9D-33">
          <mxGeometry width="50" height="50" relative="1" as="geometry">
            <mxPoint x="340" y="390" as="sourcePoint" />
            <mxPoint x="390" y="340" as="targetPoint" />
          </mxGeometry>
        </mxCell>
        <mxCell id="mCsBdlMC1jrYlV6BGc9D-48" value="" style="endArrow=none;html=1;rounded=0;entryX=0.442;entryY=0.981;entryDx=0;entryDy=0;entryPerimeter=0;exitX=0.44;exitY=0.011;exitDx=0;exitDy=0;exitPerimeter=0;" edge="1" parent="1" source="mCsBdlMC1jrYlV6BGc9D-16" target="mCsBdlMC1jrYlV6BGc9D-9">
          <mxGeometry width="50" height="50" relative="1" as="geometry">
            <mxPoint x="190" y="400" as="sourcePoint" />
            <mxPoint x="390" y="370" as="targetPoint" />
          </mxGeometry>
        </mxCell>
        <mxCell id="mCsBdlMC1jrYlV6BGc9D-50" value="" style="endArrow=none;html=1;rounded=0;entryX=0.481;entryY=1.027;entryDx=0;entryDy=0;entryPerimeter=0;exitX=0.5;exitY=0;exitDx=0;exitDy=0;" edge="1" parent="1" source="mCsBdlMC1jrYlV6BGc9D-24" target="mCsBdlMC1jrYlV6BGc9D-37">
          <mxGeometry width="50" height="50" relative="1" as="geometry">
            <mxPoint x="455" y="460" as="sourcePoint" />
            <mxPoint x="390" y="370" as="targetPoint" />
          </mxGeometry>
        </mxCell>
        <mxCell id="mCsBdlMC1jrYlV6BGc9D-51" value="" style="endArrow=none;html=1;rounded=0;entryX=0;entryY=0.5;entryDx=0;entryDy=0;exitX=1;exitY=0.5;exitDx=0;exitDy=0;" edge="1" parent="1" source="mCsBdlMC1jrYlV6BGc9D-9" target="mCsBdlMC1jrYlV6BGc9D-37">
          <mxGeometry width="50" height="50" relative="1" as="geometry">
            <mxPoint x="340" y="420" as="sourcePoint" />
            <mxPoint x="390" y="370" as="targetPoint" />
          </mxGeometry>
        </mxCell>
        <mxCell id="mCsBdlMC1jrYlV6BGc9D-52" value="" style="endArrow=none;html=1;rounded=0;exitX=0.5;exitY=0;exitDx=0;exitDy=0;entryX=0.482;entryY=0.975;entryDx=0;entryDy=0;entryPerimeter=0;" edge="1" parent="1" source="mCsBdlMC1jrYlV6BGc9D-28" target="mCsBdlMC1jrYlV6BGc9D-17">
          <mxGeometry width="50" height="50" relative="1" as="geometry">
            <mxPoint x="240" y="610" as="sourcePoint" />
            <mxPoint x="290" y="560" as="targetPoint" />
          </mxGeometry>
        </mxCell>
        <mxCell id="mCsBdlMC1jrYlV6BGc9D-56" value="0..*" style="text;html=1;align=center;verticalAlign=middle;whiteSpace=wrap;rounded=0;" vertex="1" parent="1">
          <mxGeometry x="180" y="190" width="60" height="30" as="geometry" />
        </mxCell>
        <mxCell id="mCsBdlMC1jrYlV6BGc9D-61" value="0..*" style="text;html=1;align=center;verticalAlign=middle;whiteSpace=wrap;rounded=0;" vertex="1" parent="1">
          <mxGeometry x="430" y="130" width="60" height="30" as="geometry" />
        </mxCell>
        <mxCell id="mCsBdlMC1jrYlV6BGc9D-62" value="0..*" style="text;html=1;align=center;verticalAlign=middle;whiteSpace=wrap;rounded=0;" vertex="1" parent="1">
          <mxGeometry x="395" y="160" width="60" height="30" as="geometry" />
        </mxCell>
        <mxCell id="mCsBdlMC1jrYlV6BGc9D-63" value="0..1" style="text;html=1;align=center;verticalAlign=middle;whiteSpace=wrap;rounded=0;" vertex="1" parent="1">
          <mxGeometry x="600" y="285" width="60" height="30" as="geometry" />
        </mxCell>
        <mxCell id="mCsBdlMC1jrYlV6BGc9D-65" value="0..*" style="text;html=1;align=center;verticalAlign=middle;whiteSpace=wrap;rounded=0;" vertex="1" parent="1">
          <mxGeometry x="540" y="277.5" width="60" height="25" as="geometry" />
        </mxCell>
        <mxCell id="mCsBdlMC1jrYlV6BGc9D-66" value="0..*" style="text;html=1;align=center;verticalAlign=middle;whiteSpace=wrap;rounded=0;" vertex="1" parent="1">
          <mxGeometry x="395" y="395" width="60" height="30" as="geometry" />
        </mxCell>
        <mxCell id="mCsBdlMC1jrYlV6BGc9D-67" value="0..*" style="text;html=1;align=center;verticalAlign=middle;whiteSpace=wrap;rounded=0;" vertex="1" parent="1">
          <mxGeometry x="450" y="435" width="60" height="30" as="geometry" />
        </mxCell>
        <mxCell id="mCsBdlMC1jrYlV6BGc9D-68" value="0..*" style="text;html=1;align=center;verticalAlign=middle;whiteSpace=wrap;rounded=0;" vertex="1" parent="1">
          <mxGeometry x="270" y="520" width="60" height="30" as="geometry" />
        </mxCell>
        <mxCell id="mCsBdlMC1jrYlV6BGc9D-69" value="0..*" style="text;html=1;align=center;verticalAlign=middle;whiteSpace=wrap;rounded=0;" vertex="1" parent="1">
          <mxGeometry x="330" y="505" width="60" height="30" as="geometry" />
        </mxCell>
        <mxCell id="mCsBdlMC1jrYlV6BGc9D-70" value="0..*" style="text;html=1;align=center;verticalAlign=middle;whiteSpace=wrap;rounded=0;" vertex="1" parent="1">
          <mxGeometry x="180" y="630" width="60" height="30" as="geometry" />
        </mxCell>
        <mxCell id="mCsBdlMC1jrYlV6BGc9D-71" value="0..*" style="text;html=1;align=center;verticalAlign=middle;whiteSpace=wrap;rounded=0;" vertex="1" parent="1">
          <mxGeometry x="150" y="590" width="60" height="30" as="geometry" />
        </mxCell>
        <mxCell id="mCsBdlMC1jrYlV6BGc9D-72" value="0..*" style="text;html=1;align=center;verticalAlign=middle;whiteSpace=wrap;rounded=0;" vertex="1" parent="1">
          <mxGeometry x="180" y="385" width="60" height="30" as="geometry" />
        </mxCell>
        <mxCell id="mCsBdlMC1jrYlV6BGc9D-73" value="0..1" style="text;html=1;align=center;verticalAlign=middle;whiteSpace=wrap;rounded=0;" vertex="1" parent="1">
          <mxGeometry x="130" y="355" width="60" height="30" as="geometry" />
        </mxCell>
        <mxCell id="mCsBdlMC1jrYlV6BGc9D-74" value="Text" style="text;html=1;align=center;verticalAlign=middle;whiteSpace=wrap;rounded=0;" vertex="1" parent="1">
          <mxGeometry x="390" y="390" width="60" height="30" as="geometry" />
        </mxCell>
        <mxCell id="mCsBdlMC1jrYlV6BGc9D-75" value="1" style="text;html=1;align=center;verticalAlign=middle;whiteSpace=wrap;rounded=0;" vertex="1" parent="1">
          <mxGeometry x="140" y="160" width="60" height="30" as="geometry" />
        </mxCell>
      </root>
    </mxGraphModel>
  </diagram>
</mxfile>
